<svg width="64" height="64" viewBox="0 0 64 64" fill="none" xmlns="http://www.w3.org/2000/svg">
<rect width="64" height="64" fill="#030812"/>
<path d="M18.0317 26.7525C17.106 30.565 16.382 34.4236 15.8626 38.3122C20.91 41.0958 25.6779 44.3586 30.1002 48.0557C35.2142 45.3952 40.5724 43.2331 46.1007 41.5993C46.4289 37.6898 46.5508 33.7658 46.4661 29.8435M46.4661 29.8435C48.132 29.4782 49.8155 29.1557 51.5107 28.8791C45.9734 24.0255 39.9656 19.7367 33.5765 16.0763C26.5501 18.279 19.7609 21.1773 13.3101 24.7284C14.9016 25.3596 16.4754 26.0346 18.0298 26.7523C22.7523 28.9329 27.2849 31.5031 31.5807 34.4363C36.4058 32.4948 41.386 30.9587 46.4661 29.8435ZM21.6362 36.1633C22.0015 36.2031 22.3677 36.096 22.6541 35.8658C22.9405 35.6355 23.1237 35.3009 23.1635 34.9355C23.2032 34.5702 23.0961 34.204 22.8659 33.9176C22.6356 33.6312 22.301 33.448 21.9357 33.4083C21.5703 33.3685 21.2041 33.4756 20.9177 33.7058C20.6313 33.9361 20.4481 34.2707 20.4084 34.6361C20.3686 35.0014 20.4757 35.3676 20.7059 35.654C20.9362 35.9404 21.2708 36.1236 21.6362 36.1633ZM21.6362 36.1633L22.3699 29.4134C25.6969 27.815 29.108 26.3979 32.5882 25.1681M17.4121 44.9833C18.5481 44.0724 19.4928 42.946 20.192 41.6687C20.8912 40.3915 21.3311 38.9887 21.4864 37.5409L21.7859 34.7858" stroke="white" stroke-width="1.5" stroke-linecap="round" stroke-linejoin="round"/>
</svg>
